<svg width="147" height="147" xmlns="http://www.w3.org/2000/svg" xmlns:xlink="http://www.w3.org/1999/xlink">
 <defs>
  <path d="m106.687,35.2742c-0.186,-1.0977 -0.967,-2 -2.0244,-2.338s-2.2148,-0.057 -3.0002,0.73l-15.4151,15.4998l-12.12,-23.1455c-0.5133,-0.9786 -1.525,-1.5914 -2.6273,-1.5914s-2.114,0.6128 -2.6273,1.5914l-6.6277,12.656l-16.625,-31.1039c-0.603,-1.1297 -1.8588,-1.746 -3.118,-1.5297s-2.2394,1.216 -2.4335,2.4827l-16.0685,103.1754l42.9727,24.1654c2.6985,1.5113 5.985,1.5113 8.6836,0l43.3437,-24.1654l-12.313,-76.427l0,0.0002z" id="b"/>
  <linearGradient y2="92.9%" y1="17.02%" x2="100.83%" x1="-3.49%" id="a">
   <stop stop-opacity="0.1" stop-color="#fff" offset="0%"/>
   <stop stop-opacity="0.08" stop-color="#fff" offset="14%"/>
   <stop stop-opacity="0.02" stop-color="#fff" offset="61%"/>
   <stop stop-opacity="0" stop-color="#fff" offset="100%"/>
  </linearGradient>
 </defs>
 <g>
  <title>Layer 1</title>
  <path id="svg_2" d="m23.8333,111.7187l16.1322,-103.2281c0.1972,-1.266 1.1818,-2.264 2.445,-2.4786s2.522,0.4028 3.126,1.5327l16.6835,31.1173l6.65,-12.6615c0.515,-0.979 1.5303,-1.592 2.6366,-1.592s2.1215,0.613 2.6366,1.592l45.0227,85.718l-95.3326,0l0,0.0002z" fill="#ffa000"/>
  <path id="svg_3" d="m79.566,71.5074l-17.3536,-32.8602l-38.379,73.0715l55.7326,-40.2113z" fill="#f57c00"/>
  <path id="svg_4" d="m119.1666,111.7187l-12.356,-76.4603c-0.1867,-1.098 -0.9703,-2 -2.0315,-2.34s-2.2226,-0.057 -3.0107,0.7302l-77.935,78.069l43.1234,24.1834c2.708,1.512 6.006,1.512 8.714,0l43.4958,-24.1834l0,0.0011z" fill="#ffca28"/>
  <path id="svg_5" d="m106.8105,35.2584c-0.1867,-1.098 -0.9703,-2 -2.0315,-2.34s-2.2226,-0.057 -3.0107,0.7302l-15.4683,15.5076l-12.1635,-23.1562c-0.515,-0.979 -1.5303,-1.592 -2.6366,-1.592s-2.1215,0.613 -2.6366,1.592l-6.65,12.6615l-16.6843,-31.1168c-0.605,-1.1302 -1.8653,-1.7466 -3.13,-1.5304s-2.246,1.2167 -2.441,2.4837l-16.1247,103.2207l-0.052,0l0.052,0.0596l0.4245,0.2085l77.488,-77.5775c0.7877,-0.7915 1.952,-1.076 3.016,-0.737s1.849,1.2445 2.0338,2.3457l12.2518,75.775l0.1192,-0.0745l-12.356,-76.4603l-0.0001,0.0002zm-82.8357,76.3188l15.9907,-102.3492c0.1948,-1.267 1.1784,-2.2675 2.442,-2.4837s2.524,0.4 3.13,1.5304l16.6825,31.1173l6.65,-12.6615c0.515,-0.979 1.5303,-1.592 2.6366,-1.592s2.1215,0.613 2.6366,1.592l11.9167,22.664l-62.0858,62.1827l0.0007,0z" fill-opacity="0.2" fill="#fff"/>
  <path id="svg_6" d="m75.6708,135.1722c-2.708,1.512 -6.006,1.512 -8.714,0l-43.0192,-24.1162l-0.1043,0.663l43.1234,24.176c2.708,1.512 6.006,1.512 8.714,0l43.4958,-24.176l-0.1117,-0.6852l-43.384,24.1387l0,-0.0003z" opacity="0.2" fill="#a52714"/>
  <use transform="matrix(1 0 0 1 0 0)" x="2" y="2.00005" id="svg_7" xlink:href="#b" fill="url(#a)"/>
 </g>
</svg>